<mxfile host="app.diagrams.net" modified="2021-02-26T08:19:02.342Z" agent="5.0 (Windows NT 10.0; Win64; x64) AppleWebKit/537.36 (KHTML, like Gecko) Chrome/88.0.4324.190 Safari/537.36" etag="XGM62d0kr32gGsL0XPSN" version="14.1.8" type="github">
  <diagram id="mjgzQn2ASEtUktzJg035" name="Page-1">
    <mxGraphModel dx="1038" dy="547" grid="1" gridSize="10" guides="1" tooltips="1" connect="1" arrows="1" fold="1" page="1" pageScale="1" pageWidth="827" pageHeight="1169" math="0" shadow="0">
      <root>
        <mxCell id="0" />
        <mxCell id="1" parent="0" />
        <mxCell id="aGDw1qsnUqBc0Kz5TsCL-34" style="edgeStyle=orthogonalEdgeStyle;rounded=0;orthogonalLoop=1;jettySize=auto;html=1;" edge="1" parent="1" source="aGDw1qsnUqBc0Kz5TsCL-33">
          <mxGeometry relative="1" as="geometry">
            <mxPoint x="889" y="410" as="targetPoint" />
          </mxGeometry>
        </mxCell>
        <mxCell id="aGDw1qsnUqBc0Kz5TsCL-33" value="" style="rounded=1;whiteSpace=wrap;html=1;" vertex="1" parent="1">
          <mxGeometry x="576" y="320" width="283" height="180" as="geometry" />
        </mxCell>
        <mxCell id="aGDw1qsnUqBc0Kz5TsCL-3" value="" style="rounded=0;whiteSpace=wrap;html=1;" vertex="1" parent="1">
          <mxGeometry x="66" y="90" width="90" height="80" as="geometry" />
        </mxCell>
        <mxCell id="aGDw1qsnUqBc0Kz5TsCL-5" value="" style="rounded=0;whiteSpace=wrap;html=1;" vertex="1" parent="1">
          <mxGeometry x="76" y="100" width="90" height="80" as="geometry" />
        </mxCell>
        <mxCell id="aGDw1qsnUqBc0Kz5TsCL-8" style="edgeStyle=orthogonalEdgeStyle;rounded=0;orthogonalLoop=1;jettySize=auto;html=1;exitX=1;exitY=0.5;exitDx=0;exitDy=0;" edge="1" parent="1" source="aGDw1qsnUqBc0Kz5TsCL-6">
          <mxGeometry relative="1" as="geometry">
            <mxPoint x="276" y="150" as="targetPoint" />
          </mxGeometry>
        </mxCell>
        <mxCell id="aGDw1qsnUqBc0Kz5TsCL-9" value="目标检测" style="edgeLabel;html=1;align=center;verticalAlign=middle;resizable=0;points=[];" vertex="1" connectable="0" parent="aGDw1qsnUqBc0Kz5TsCL-8">
          <mxGeometry x="0.176" y="2" relative="1" as="geometry">
            <mxPoint as="offset" />
          </mxGeometry>
        </mxCell>
        <mxCell id="aGDw1qsnUqBc0Kz5TsCL-6" value="" style="rounded=0;whiteSpace=wrap;html=1;" vertex="1" parent="1">
          <mxGeometry x="86" y="110" width="90" height="80" as="geometry" />
        </mxCell>
        <mxCell id="aGDw1qsnUqBc0Kz5TsCL-7" value="视频关键帧" style="text;html=1;align=center;verticalAlign=middle;resizable=0;points=[];autosize=1;" vertex="1" parent="1">
          <mxGeometry x="86" y="200" width="80" height="20" as="geometry" />
        </mxCell>
        <mxCell id="aGDw1qsnUqBc0Kz5TsCL-10" value="" style="rounded=0;whiteSpace=wrap;html=1;" vertex="1" parent="1">
          <mxGeometry x="286" y="60" width="50" height="30" as="geometry" />
        </mxCell>
        <mxCell id="aGDw1qsnUqBc0Kz5TsCL-11" value="" style="rounded=0;whiteSpace=wrap;html=1;" vertex="1" parent="1">
          <mxGeometry x="286" y="100" width="50" height="30" as="geometry" />
        </mxCell>
        <mxCell id="aGDw1qsnUqBc0Kz5TsCL-12" value="" style="rounded=0;whiteSpace=wrap;html=1;" vertex="1" parent="1">
          <mxGeometry x="286" y="175" width="50" height="30" as="geometry" />
        </mxCell>
        <mxCell id="aGDw1qsnUqBc0Kz5TsCL-13" value="" style="rounded=0;whiteSpace=wrap;html=1;" vertex="1" parent="1">
          <mxGeometry x="286" y="215" width="50" height="30" as="geometry" />
        </mxCell>
        <mxCell id="aGDw1qsnUqBc0Kz5TsCL-14" value=".......&lt;br&gt;" style="text;html=1;align=center;verticalAlign=middle;resizable=0;points=[];autosize=1;" vertex="1" parent="1">
          <mxGeometry x="291" y="140" width="40" height="20" as="geometry" />
        </mxCell>
        <mxCell id="aGDw1qsnUqBc0Kz5TsCL-15" value="" style="endArrow=classic;html=1;" edge="1" parent="1">
          <mxGeometry width="50" height="50" relative="1" as="geometry">
            <mxPoint x="346" y="160" as="sourcePoint" />
            <mxPoint x="436" y="160" as="targetPoint" />
          </mxGeometry>
        </mxCell>
        <mxCell id="aGDw1qsnUqBc0Kz5TsCL-16" value="" style="endArrow=classic;html=1;" edge="1" parent="1">
          <mxGeometry width="50" height="50" relative="1" as="geometry">
            <mxPoint x="396" y="230" as="sourcePoint" />
            <mxPoint x="396" y="170" as="targetPoint" />
          </mxGeometry>
        </mxCell>
        <mxCell id="aGDw1qsnUqBc0Kz5TsCL-17" value="PE" style="ellipse;whiteSpace=wrap;html=1;" vertex="1" parent="1">
          <mxGeometry x="356" y="240" width="80" height="80" as="geometry" />
        </mxCell>
        <mxCell id="aGDw1qsnUqBc0Kz5TsCL-26" style="edgeStyle=orthogonalEdgeStyle;rounded=0;orthogonalLoop=1;jettySize=auto;html=1;exitX=1;exitY=0.5;exitDx=0;exitDy=0;entryX=0.005;entryY=0.565;entryDx=0;entryDy=0;entryPerimeter=0;" edge="1" parent="1" source="aGDw1qsnUqBc0Kz5TsCL-18" target="aGDw1qsnUqBc0Kz5TsCL-20">
          <mxGeometry relative="1" as="geometry" />
        </mxCell>
        <mxCell id="aGDw1qsnUqBc0Kz5TsCL-18" value="T2T" style="shape=process;whiteSpace=wrap;html=1;backgroundOutline=1;" vertex="1" parent="1">
          <mxGeometry x="456" y="130" width="120" height="60" as="geometry" />
        </mxCell>
        <mxCell id="aGDw1qsnUqBc0Kz5TsCL-20" value="" style="rounded=1;whiteSpace=wrap;html=1;" vertex="1" parent="1">
          <mxGeometry x="622" y="78.75" width="170" height="142.5" as="geometry" />
        </mxCell>
        <mxCell id="aGDw1qsnUqBc0Kz5TsCL-21" value="Encoder" style="text;html=1;align=center;verticalAlign=middle;resizable=0;points=[];autosize=1;" vertex="1" parent="1">
          <mxGeometry x="632" y="90" width="60" height="20" as="geometry" />
        </mxCell>
        <mxCell id="aGDw1qsnUqBc0Kz5TsCL-23" style="edgeStyle=orthogonalEdgeStyle;rounded=0;orthogonalLoop=1;jettySize=auto;html=1;exitX=0.5;exitY=1;exitDx=0;exitDy=0;" edge="1" parent="1" source="aGDw1qsnUqBc0Kz5TsCL-22">
          <mxGeometry relative="1" as="geometry">
            <mxPoint x="712" y="181.5" as="targetPoint" />
          </mxGeometry>
        </mxCell>
        <mxCell id="aGDw1qsnUqBc0Kz5TsCL-22" value="SA layer" style="rounded=1;whiteSpace=wrap;html=1;" vertex="1" parent="1">
          <mxGeometry x="642" y="121.5" width="140" height="30" as="geometry" />
        </mxCell>
        <mxCell id="aGDw1qsnUqBc0Kz5TsCL-24" value="feed forward" style="text;html=1;align=center;verticalAlign=middle;resizable=0;points=[];autosize=1;" vertex="1" parent="1">
          <mxGeometry x="672" y="181.5" width="80" height="20" as="geometry" />
        </mxCell>
        <mxCell id="aGDw1qsnUqBc0Kz5TsCL-27" value="Decoder" style="text;html=1;align=center;verticalAlign=middle;resizable=0;points=[];autosize=1;" vertex="1" parent="1">
          <mxGeometry x="591" y="340" width="60" height="20" as="geometry" />
        </mxCell>
        <mxCell id="aGDw1qsnUqBc0Kz5TsCL-29" style="edgeStyle=orthogonalEdgeStyle;rounded=0;orthogonalLoop=1;jettySize=auto;html=1;exitX=1;exitY=0.5;exitDx=0;exitDy=0;" edge="1" parent="1" source="aGDw1qsnUqBc0Kz5TsCL-28">
          <mxGeometry relative="1" as="geometry">
            <mxPoint x="701" y="425" as="targetPoint" />
          </mxGeometry>
        </mxCell>
        <mxCell id="aGDw1qsnUqBc0Kz5TsCL-28" value="SA layer" style="rounded=1;whiteSpace=wrap;html=1;" vertex="1" parent="1">
          <mxGeometry x="601" y="380" width="70" height="90" as="geometry" />
        </mxCell>
        <mxCell id="aGDw1qsnUqBc0Kz5TsCL-30" value="&lt;span style=&quot;color: rgb(50 , 50 , 50) ; font-size: 13px ; background-color: rgba(255 , 255 , 255 , 0.01)&quot;&gt;Multi-heaf&lt;/span&gt;&lt;div style=&quot;resize: none ; outline: 0px ; font-size: 13px ; color: rgb(50 , 50 , 50)&quot;&gt;attention&lt;/div&gt;" style="rounded=1;whiteSpace=wrap;html=1;" vertex="1" parent="1">
          <mxGeometry x="708" y="370" width="71" height="110" as="geometry" />
        </mxCell>
        <mxCell id="aGDw1qsnUqBc0Kz5TsCL-31" value="forward" style="text;html=1;align=center;verticalAlign=middle;resizable=0;points=[];autosize=1;" vertex="1" parent="1">
          <mxGeometry x="799" y="415" width="60" height="20" as="geometry" />
        </mxCell>
        <mxCell id="aGDw1qsnUqBc0Kz5TsCL-32" value="" style="endArrow=classic;html=1;exitX=1;exitY=0.5;exitDx=0;exitDy=0;" edge="1" parent="1" source="aGDw1qsnUqBc0Kz5TsCL-30" target="aGDw1qsnUqBc0Kz5TsCL-31">
          <mxGeometry width="50" height="50" relative="1" as="geometry">
            <mxPoint x="489" y="360" as="sourcePoint" />
            <mxPoint x="539" y="310" as="targetPoint" />
          </mxGeometry>
        </mxCell>
        <mxCell id="aGDw1qsnUqBc0Kz5TsCL-35" value="描述文本" style="text;html=1;align=center;verticalAlign=middle;resizable=0;points=[];autosize=1;" vertex="1" parent="1">
          <mxGeometry x="899" y="400" width="60" height="20" as="geometry" />
        </mxCell>
        <mxCell id="aGDw1qsnUqBc0Kz5TsCL-38" value="" style="edgeStyle=orthogonalEdgeStyle;rounded=0;orthogonalLoop=1;jettySize=auto;html=1;" edge="1" parent="1" source="aGDw1qsnUqBc0Kz5TsCL-36" target="aGDw1qsnUqBc0Kz5TsCL-37">
          <mxGeometry relative="1" as="geometry" />
        </mxCell>
        <mxCell id="aGDw1qsnUqBc0Kz5TsCL-36" value="文本" style="text;html=1;align=center;verticalAlign=middle;resizable=0;points=[];autosize=1;" vertex="1" parent="1">
          <mxGeometry x="336" y="400" width="40" height="20" as="geometry" />
        </mxCell>
        <mxCell id="aGDw1qsnUqBc0Kz5TsCL-41" style="edgeStyle=orthogonalEdgeStyle;rounded=0;orthogonalLoop=1;jettySize=auto;html=1;entryX=0;entryY=0.5;entryDx=0;entryDy=0;" edge="1" parent="1" source="aGDw1qsnUqBc0Kz5TsCL-37" target="aGDw1qsnUqBc0Kz5TsCL-33">
          <mxGeometry relative="1" as="geometry" />
        </mxCell>
        <mxCell id="aGDw1qsnUqBc0Kz5TsCL-37" value="" style="whiteSpace=wrap;html=1;" vertex="1" parent="1">
          <mxGeometry x="452" y="335" width="30" height="150" as="geometry" />
        </mxCell>
        <mxCell id="aGDw1qsnUqBc0Kz5TsCL-39" value="" style="endArrow=classic;html=1;" edge="1" parent="1">
          <mxGeometry width="50" height="50" relative="1" as="geometry">
            <mxPoint x="392" y="480" as="sourcePoint" />
            <mxPoint x="392" y="420" as="targetPoint" />
          </mxGeometry>
        </mxCell>
        <mxCell id="aGDw1qsnUqBc0Kz5TsCL-40" value="PE" style="ellipse;whiteSpace=wrap;html=1;" vertex="1" parent="1">
          <mxGeometry x="366" y="480" width="54" height="50" as="geometry" />
        </mxCell>
        <mxCell id="aGDw1qsnUqBc0Kz5TsCL-42" value="emebeding" style="text;html=1;align=center;verticalAlign=middle;resizable=0;points=[];autosize=1;" vertex="1" parent="1">
          <mxGeometry x="425" y="500" width="70" height="20" as="geometry" />
        </mxCell>
      </root>
    </mxGraphModel>
  </diagram>
</mxfile>
